HIERARCHY
ROOT Hips
{
	OFFSET -0.001795 -0.223333 0.028219
	CHANNELS 6 Xposition Yposition Zposition Zrotation Yrotation Xrotation 
	JOINT LeftUpLeg
	{
		OFFSET 0.069520 -0.091406 -0.006815
		CHANNELS 3 Zrotation Yrotation Xrotation
		JOINT LeftLeg
		{
			OFFSET 0.034277 -0.375199 -0.004496
			CHANNELS 3 Zrotation Yrotation Xrotation
			JOINT LeftFoot
			{
				OFFSET -0.013596 -0.397961 -0.043693
				CHANNELS 3 Zrotation Yrotation Xrotation
				JOINT LeftToe
				{
					OFFSET 0.026358 -0.055791 0.119288
					CHANNELS 3 Zrotation Yrotation Xrotation
					End Site
					{
						OFFSET 0.000000 0.000000 0.000000
					}
				}
			}
		}
	}
	JOINT RightUpLeg
	{
		OFFSET -0.067670 -0.090522 -0.004320
		CHANNELS 3 Zrotation Yrotation Xrotation
		JOINT RightLeg
		{
			OFFSET -0.038290 -0.382569 -0.008850
			CHANNELS 3 Zrotation Yrotation Xrotation
			JOINT RightFoot
			{
				OFFSET 0.015774 -0.398415 -0.042312
				CHANNELS 3 Zrotation Yrotation Xrotation
				JOINT RightToe
				{
					OFFSET -0.025372 -0.048144 0.123348
					CHANNELS 3 Zrotation Yrotation Xrotation
					End Site
					{
						OFFSET 0.000000 0.000000 0.000000
					}
				}
			}
		}
	}
	JOINT Spine
	{
		OFFSET -0.002533 0.108963 -0.026696
		CHANNELS 3 Zrotation Yrotation Xrotation
		JOINT Spine1
		{
			OFFSET 0.005487 0.135180 0.001092
			CHANNELS 3 Zrotation Yrotation Xrotation
			JOINT Spine2
			{
				OFFSET 0.001457 0.052922 0.025425
				CHANNELS 3 Zrotation Yrotation Xrotation
				JOINT Neck
				{
					OFFSET -0.002778 0.213870 -0.042857
					CHANNELS 3 Zrotation Yrotation Xrotation
					JOINT Head
					{
						OFFSET 0.005152 0.064970 0.051349
						CHANNELS 3 Zrotation Yrotation Xrotation
						End Site
						{
							OFFSET 0.000000 0.000000 0.000000
						}
					}
				}
				JOINT LeftShoulder
				{
					OFFSET 0.078845 0.121749 -0.034090
					CHANNELS 3 Zrotation Yrotation Xrotation
					JOINT LeftArm
					{
						OFFSET 0.090977 0.030469 -0.008868
						CHANNELS 3 Zrotation Yrotation Xrotation
						JOINT LeftForeArm
						{
							OFFSET 0.259612 -0.012772 -0.027456
							CHANNELS 3 Zrotation Yrotation Xrotation
							JOINT LeftHand
							{
								OFFSET 0.249234 0.008986 -0.001171
								CHANNELS 3 Zrotation Yrotation Xrotation
								End Site
								{
									OFFSET 0.000000 0.000000 0.000000
								}
							}
						}
					}
				}
				JOINT RightShoulder
				{
					OFFSET -0.081759 0.118833 -0.038615
					CHANNELS 3 Zrotation Yrotation Xrotation
					JOINT RightArm
					{
						OFFSET -0.096012 0.032551 -0.009143
						CHANNELS 3 Zrotation Yrotation Xrotation
						JOINT RightForeArm
						{
							OFFSET -0.253742 -0.013329 -0.021401
							CHANNELS 3 Zrotation Yrotation Xrotation
							JOINT RightHand
							{
								OFFSET -0.255298 0.007772 -0.005559
								CHANNELS 3 Zrotation Yrotation Xrotation
								End Site
								{
									OFFSET 0.000000 0.000000 0.000000
								}
							}
						}
					}
				}
			}
		}
	}
}
MOTION
Frames: 7
Frame Time: 0.050000
2.473604 0.925890 1.242674 7.266276 -3.655949 -3.101426 0.804159 -1.600960 -20.020480 4.652167 -1.445028 13.089948 -12.253148 -12.161730 18.902419 0.000000 0.000000 0.000000 11.954353 -1.727834 7.663569 -12.642957 6.380928 28.831682 15.314999 16.641143 21.713121 0.000000 0.000000 0.000000 -0.776664 -0.377815 14.370469 -0.367240 0.196933 -2.446500 -3.026911 8.881277 5.938993 14.330861 -7.926314 -13.145913 0.000000 0.000000 0.000000 -29.448583 4.062404 -8.359245 -42.573160 4.198523 -5.732334 -9.077201 -31.343761 3.205377 0.000000 0.000000 0.000000 23.804877 -8.691813 -5.331050 45.103820 -3.097469 -6.091774 29.869311 45.142735 15.274431 0.000000 0.000000 0.000000 
2.483186 0.921855 1.297803 7.565864 -9.099742 -4.045032 -0.850671 -1.611415 -18.432980 6.469365 -2.018343 17.642948 -9.346755 -9.679888 16.576101 0.000000 0.000000 0.000000 9.447283 -0.810935 3.645747 -8.939489 8.598912 42.978471 13.986885 11.632868 24.483918 0.000000 0.000000 0.000000 -2.408770 -0.074232 13.480444 0.545331 -0.273354 -2.690877 -3.342044 7.539851 7.125518 15.563346 -9.508553 -11.952086 0.000000 0.000000 0.000000 -29.098395 3.453647 -6.221449 -42.298554 3.146394 -5.920602 -8.564106 -29.823421 3.255787 0.000000 0.000000 0.000000 22.818514 -7.302282 -5.511713 45.871298 -3.936566 -6.299330 31.171533 43.554134 14.467141 0.000000 0.000000 0.000000 
2.489174 0.910163 1.347161 8.429855 -15.901745 -6.283484 -1.643742 -1.467408 -16.635718 5.813576 -1.571606 25.138487 -4.868216 -5.636866 10.926172 0.000000 0.000000 0.000000 6.948815 0.429125 -3.935846 -0.839912 10.771192 63.285125 9.294156 2.941615 26.614930 0.000000 0.000000 0.000000 -3.290611 0.242600 15.770262 -0.030882 -0.080243 -2.417879 -2.842956 5.080744 6.197546 15.309653 -9.737337 -11.575084 0.000000 0.000000 0.000000 -29.934216 4.079414 -4.504365 -40.441250 1.915961 -5.866273 -7.944242 -30.717131 3.594810 0.000000 0.000000 0.000000 22.445261 -5.957895 -6.359093 45.860603 -5.774193 -6.480851 30.390287 42.354538 12.551504 0.000000 0.000000 0.000000 
2.490461 0.898561 1.386168 8.606326 -21.078841 -8.697256 -1.910948 -1.271132 -14.040706 5.503601 -0.663085 30.748526 -1.997143 -2.337479 6.429049 0.000000 0.000000 0.000000 5.139903 1.773079 -12.446591 9.171444 7.992013 76.193417 2.839781 -6.244654 27.678589 0.000000 0.000000 0.000000 -2.705497 0.481890 18.928852 -0.677595 0.162734 -2.337603 -3.534553 1.730536 6.871194 13.922725 -8.647437 -14.335914 0.000000 0.000000 0.000000 -29.382270 2.833492 -1.372250 -39.094236 -3.675218 -4.803695 -4.888053 -29.882033 3.013372 0.000000 0.000000 0.000000 23.074269 -4.936901 -7.546404 46.303111 -6.486224 -6.481386 28.899460 43.412788 11.318826 0.000000 0.000000 0.000000 
2.485819 0.894867 1.418493 8.482314 -26.070757 -9.919295 -1.417333 -0.915848 -10.041361 4.465426 0.514755 31.179438 0.290547 1.290076 3.951175 0.000000 0.000000 0.000000 3.111828 3.191221 -20.357210 16.070115 4.191776 76.701893 -2.693002 -11.715230 15.788970 0.000000 0.000000 0.000000 -2.411470 0.770585 20.651489 0.121751 -0.249677 -2.420844 -4.773223 -1.494863 7.122447 12.613671 -8.074980 -15.278006 0.000000 0.000000 0.000000 -28.148304 1.929263 1.271063 -39.775189 -7.562499 -4.364947 -1.326210 -31.362459 2.555560 0.000000 0.000000 0.000000 23.223081 -3.183602 -8.259199 48.080224 -6.805280 -6.533667 24.471195 40.011059 7.948527 0.000000 0.000000 0.000000 
2.474064 0.901253 1.448014 7.920132 -31.996264 -9.376036 -0.562170 -0.425796 -4.791307 2.978143 1.198276 26.385806 2.771924 6.052416 4.103632 0.000000 0.000000 0.000000 1.836808 4.395884 -25.503501 12.169005 6.739206 62.803749 -1.797204 -8.360327 6.742298 0.000000 0.000000 0.000000 -1.876450 0.930594 20.728339 -0.111776 -0.242296 -3.597228 -4.345741 -2.950473 9.141141 10.026128 -6.828946 -16.847340 0.000000 0.000000 0.000000 -25.918581 1.111552 3.340216 -40.771171 -11.316034 -3.715981 1.398683 -35.571506 2.573525 0.000000 0.000000 0.000000 24.660418 -2.136391 -9.787217 46.470503 -8.192017 -6.359015 22.946996 37.433199 6.401995 0.000000 0.000000 0.000000 
2.454048 0.912186 1.475531 7.235631 -36.875999 -8.301558 0.608183 0.252422 1.188435 1.057165 1.226075 19.168063 4.731559 9.536223 7.187508 0.000000 0.000000 0.000000 0.470596 5.004588 -27.898157 -0.306062 7.877450 39.790348 1.402659 -6.774137 11.913144 0.000000 0.000000 0.000000 -0.575236 0.822574 20.190580 -0.675117 -0.048968 -4.013308 -3.348280 -5.509432 8.965942 7.078070 -5.531030 -16.752627 0.000000 0.000000 0.000000 -24.987501 3.357506 3.385730 -41.698605 -14.304390 -3.086244 3.333392 -38.132593 2.808931 0.000000 0.000000 0.000000 23.277651 -1.860166 -10.873333 47.757371 -10.980145 -7.441171 21.220636 34.953744 4.822494 0.000000 0.000000 0.000000 
